<?xml version="1.0" encoding="UTF-8"?>
<svg version="1.1" xmlns="http://www.w3.org/2000/svg" width="512" height="512">
<path d="M0 0 C4.51560812 3.44714011 5.33166673 8.84224463 6.59375 14.15454102 C6.82199463 15.06924164 7.05023926 15.98394226 7.28540039 16.92636108 C8.03623813 19.94924532 8.76831648 22.97633376 9.5 26.00390625 C10.02177466 28.12386073 10.544578 30.24356227 11.06835938 32.36302185 C12.16549752 36.81392283 13.25407483 41.26679738 14.3359375 45.72143555 C15.70920575 51.37547625 17.09722806 57.02574917 18.49108887 62.67474461 C19.83294264 68.1164397 21.16651831 73.56015484 22.5 79.00390625 C22.74903076 80.01711 22.99806152 81.03031376 23.25463867 82.07422066 C25.77334281 92.34260435 28.20615606 102.61918749 30.31640625 112.98022461 C30.48245361 113.78444886 30.64850098 114.58867311 30.81958008 115.4172678 C34.73758707 135.19462165 30.01235398 154.58865741 18.9765625 171.3125 C15.37596359 176.20817598 11.29572141 180.70427859 7 185 C7.1583394 193.3189083 8.27108533 201.54459325 9.59765625 209.74609375 C10.02421676 213.19585011 10.02648937 216.52732102 10 220 C10.60830815 219.99631283 11.21661631 219.99262566 11.84335804 219.98882675 C26.68492663 219.90026371 41.52646951 219.83418768 56.3682375 219.79275131 C63.54580015 219.77217732 70.72318578 219.74415643 77.90063477 219.69824219 C84.16078178 219.65821523 90.4208005 219.63252971 96.68107194 219.62364602 C99.99204974 219.61845782 103.30257783 219.60423427 106.61345863 219.57707977 C110.32105563 219.54789083 114.02790163 219.54405064 117.7355957 219.54589844 C118.81813629 219.53151733 119.90067688 219.51713623 121.01602173 219.50231934 C132.46595468 219.5637538 141.68008791 223.07008379 150 231 C155.12368371 236.39816677 160 244.3315524 160 252 C161.33961792 251.97643433 161.33961792 251.97643433 162.70629883 251.95239258 C166.02178756 251.90124561 169.33685675 251.86364188 172.65258789 251.83520508 C174.08722552 251.82012411 175.52181708 251.7996562 176.95629883 251.77368164 C179.01915859 251.73726563 181.08140858 251.72026757 183.14453125 251.70703125 C185.00621948 251.68346558 185.00621948 251.68346558 186.90551758 251.65942383 C190 252 190 252 191.66914368 253.27348328 C194.02815379 256.33382145 193.42496905 260.22361051 193.3984375 263.9375 C193.40130768 264.81398193 193.40417786 265.69046387 193.40713501 266.59350586 C193.40917598 268.44613288 193.40364378 270.29878142 193.39111328 272.15136719 C193.37505984 274.98942179 193.39096055 277.82605227 193.41015625 280.6640625 C193.40817382 282.46354481 193.40433016 284.26302624 193.3984375 286.0625 C193.40451019 286.91255615 193.41058289 287.7626123 193.4168396 288.63842773 C193.34614779 294.5509433 193.34614779 294.5509433 191.66914368 296.72651672 C188.9833753 298.77563997 186.45943905 298.33492961 183.14453125 298.29296875 C182.48289474 298.28872391 181.82125824 298.28447906 181.13957214 298.28010559 C179.0301309 298.26333693 176.92165154 298.22569099 174.8125 298.1875 C173.38087319 298.17245068 171.94923138 298.1587627 170.51757812 298.14648438 C167.01140712 298.1134403 163.50579746 298.06167167 160 298 C159.8860791 298.59095459 159.7721582 299.18190918 159.65478516 299.79077148 C157.5305432 310.14882893 152.34527685 318.38842503 144 325 C138.04712365 328.60400044 132.50973013 331.12856603 125.49481201 331.12025452 C124.59741302 331.12162918 123.70001404 331.12300385 122.77542114 331.12442017 C121.79862396 331.12082489 120.82182678 331.11722961 119.81542969 331.11352539 C118.7809671 331.11367142 117.74650452 331.11381744 116.68069458 331.1139679 C113.26106673 331.11327117 109.84149334 331.10548994 106.421875 331.09765625 C104.05104604 331.09579122 101.68021669 331.09436772 99.30938721 331.09336853 C93.06883684 331.08955006 86.82830973 331.07972545 80.58776855 331.06866455 C74.2199739 331.05843606 67.8521755 331.05386782 61.484375 331.04882812 C48.98957311 331.03810262 36.49478849 331.02103419 24 331 C24.00999275 332.26787102 24.00999275 332.26787102 24.02018738 333.56135559 C24.08026525 341.52182444 24.12595743 349.48221729 24.15543652 357.4428606 C24.17110146 361.53565443 24.19235458 365.62826114 24.22631836 369.72094727 C24.25888267 373.66964752 24.27684677 377.61816765 24.28463173 381.56699181 C24.29018054 383.07451908 24.30101595 384.58203636 24.31719017 386.08948708 C24.3389263 388.19895459 24.34196864 390.30767509 24.34057617 392.41723633 C24.35056892 394.21926262 24.35056892 394.21926262 24.36076355 396.05769348 C24 399 24 399 22.72303772 400.66134644 C19.66334825 403.03846457 15.75070847 402.38679374 12.03051758 402.34057617 C11.11324387 402.34101425 10.19597015 402.34145233 9.25090027 402.34190369 C6.21522834 402.33981158 3.18010685 402.31646051 0.14453125 402.29296875 C-1.95868122 402.2873743 -4.06189759 402.28310349 -6.16511536 402.28010559 C-11.70379407 402.26864497 -17.2422372 402.23916719 -22.78082275 402.20599365 C-28.43132337 402.17531907 -34.08186201 402.16160584 -39.73242188 402.14648438 C-50.82171816 402.11429876 -61.9108395 402.0630876 -73 402 C-73.05512253 403.04220703 -73.05512253 403.04220703 -73.11135864 404.10546875 C-73.79951098 414.83210574 -75.42911213 425.38262557 -77.0546875 436 C-77.36006059 438.00966818 -77.66532603 440.01935272 -77.9704895 442.02905273 C-78.60750507 446.21506423 -79.24859169 450.40042965 -79.89208984 454.58544922 C-80.71539868 459.94472564 -81.52409322 465.30609923 -82.32929802 470.66812134 C-82.95330777 474.80765497 -83.58714951 478.94563903 -84.2237587 483.08325195 C-84.52630752 485.0602448 -84.82529981 487.03778539 -85.12063217 489.01586914 C-85.53348891 491.77399689 -85.96007771 494.52966586 -86.39013672 497.28515625 C-86.56796692 498.50393211 -86.56796692 498.50393211 -86.74938965 499.74732971 C-87.50453212 504.47194112 -88.48228706 508.48228706 -92 512 C-94.61688441 512.09509559 -97.207289 512.12556 -99.82446289 512.11352539 C-100.64390884 512.11367142 -101.4633548 512.11381744 -102.30763245 512.1139679 C-105.02933353 512.11326852 -107.75096705 512.10547501 -110.47265625 512.09765625 C-112.35452741 512.09579216 -114.23639906 512.09436821 -116.11827087 512.09336853 C-121.08148529 512.08954267 -126.04467064 512.07971181 -131.00787354 512.06866455 C-136.06839606 512.0584519 -141.12892327 512.05387122 -146.18945312 512.04882812 C-156.12631488 512.0380896 -166.06315503 512.02101236 -176 512 C-176.495 510.515 -176.495 510.515 -177 509 C-177.66 509 -178.32 509 -179 509 C-179.26972559 500.34581897 -178.50170431 492.20619934 -177.08813477 483.67578125 C-176.88491608 482.40273636 -176.68169739 481.12969147 -176.47232056 479.81806946 C-175.92079673 476.36473929 -175.35778446 472.9133755 -174.79242063 469.4622879 C-174.20039627 465.83643413 -173.61889 462.20889306 -173.03611755 458.58154297 C-172.05785042 452.50175391 -171.07276159 446.42310429 -170.08276367 440.34521484 C-168.68691341 431.77556976 -167.30395985 423.2038791 -165.92331612 414.63177299 C-164.84861401 407.96242855 -163.77012657 401.29369548 -162.69140625 394.625 C-162.5760708 393.91157566 -162.46073534 393.19815132 -162.34190488 392.46310806 C-161.57784274 387.73796438 -160.81038513 383.01338471 -160.04125977 378.2890625 C-159.84848953 377.0973494 -159.6557193 375.90563629 -159.45710754 374.67781067 C-159.27903564 373.58739975 -159.10096375 372.49698883 -158.91749573 371.37353516 C-158.7635563 370.4267691 -158.60961687 369.48000305 -158.45101261 368.50454712 C-158.05460375 366.30322362 -157.57472108 364.16064688 -157 362 C-157.59014893 362.01571045 -158.18029785 362.0314209 -158.78833008 362.04760742 C-161.46295586 362.10997939 -164.13742864 362.14899657 -166.8125 362.1875 C-168.2056543 362.22520508 -168.2056543 362.22520508 -169.62695312 362.26367188 C-170.51962891 362.27333984 -171.41230469 362.28300781 -172.33203125 362.29296875 C-173.15421143 362.3086792 -173.9763916 362.32438965 -174.82348633 362.34057617 C-177 362 -177 362 -178.61474609 360.91882324 C-180.72576157 357.99469104 -180.35901702 355.52962913 -180.34057617 351.95825195 C-180.34101425 351.24580322 -180.34145233 350.53335449 -180.34190369 349.79931641 C-180.3398143 347.44535885 -180.31647715 345.09211431 -180.29296875 342.73828125 C-180.2873733 341.10589487 -180.28310296 339.47350345 -180.28010559 337.84111023 C-180.2686527 333.54525842 -180.23918187 329.24971104 -180.20599365 324.95397949 C-180.17530224 320.57027301 -180.16160225 316.18651733 -180.14648438 311.80273438 C-180.11431245 303.20168323 -180.06311093 294.60087949 -180 286 C-181.02357353 286.00999275 -181.02357353 286.00999275 -182.06782532 286.02018738 C-189.1564158 286.08644829 -196.24491861 286.1317622 -203.33374023 286.16479492 C-205.98091199 286.1799012 -208.62805864 286.2003873 -211.27514648 286.22631836 C-215.07542101 286.26261991 -218.87536526 286.27970803 -222.67578125 286.29296875 C-224.45714226 286.31619453 -224.45714226 286.31619453 -226.27449036 286.33988953 C-227.37540512 286.34011612 -228.47631989 286.34034271 -229.6105957 286.34057617 C-231.06620659 286.35056892 -231.06620659 286.35056892 -232.55122375 286.36076355 C-235 286 -235 286 -236.81193542 284.59980774 C-238.29129322 282.60775436 -238.40299019 281.46313631 -238.375 279 C-238.38660156 277.9790625 -238.38660156 277.9790625 -238.3984375 276.9375 C-237.86852268 274.3606593 -237.0809536 273.60087675 -235 272 C-232.46665955 271.61473083 -232.46665955 271.61473083 -229.40209961 271.59936523 C-228.25337875 271.58602646 -227.1046579 271.57268768 -225.92112732 271.5589447 C-224.67742874 271.55882889 -223.43373016 271.55871307 -222.15234375 271.55859375 C-220.19360174 271.53840752 -218.23485978 271.518211 -216.276124 271.49742985 C-213.52635528 271.47173551 -210.77659022 271.45923521 -208.0267334 271.44702148 C-203.24480885 271.42522831 -198.46302471 271.3936726 -193.68128967 271.34571838 C-191.13809937 271.32153388 -188.59479986 271.30653548 -186.05149841 271.30210876 C-173.56886493 271.22834281 -173.56886493 271.22834281 -162 267 C-160.3530561 264.35930691 -159.41297905 261.50936602 -158.4375 258.5625 C-158.18871094 257.82128906 -157.93992187 257.08007812 -157.68359375 256.31640625 C-156.35588276 251.81736273 -155.86793879 247.6181234 -155.7890625 242.9296875 C-155.76070313 241.78628906 -155.73234375 240.64289063 -155.703125 239.46484375 C-155.65087514 237.06396247 -155.6066546 234.66289351 -155.5703125 232.26171875 C-155.539375 231.12089844 -155.5084375 229.98007813 -155.4765625 228.8046875 C-155.45674316 227.76296387 -155.43692383 226.72124023 -155.41650391 225.64794922 C-155 223 -155 223 -153.84521484 221.19970703 C-149.00867053 218.05512133 -142.34197671 218.89339066 -136.78173828 218.97827148 C-135.87378006 218.98787903 -134.96582184 218.99748657 -134.03034973 219.00738525 C-131.04358838 219.04023974 -128.05697955 219.08062333 -125.0703125 219.12109375 C-122.99381032 219.14540812 -120.91730258 219.16925101 -118.84078979 219.19264221 C-113.38604366 219.25535208 -107.93139664 219.32445565 -102.47674561 219.39489746 C-96.90641783 219.46569941 -91.33602 219.53044532 -85.765625 219.59570312 C-74.84367301 219.72454658 -63.92181616 219.86014567 -53 220 C-53.1429248 219.24871826 -53.28584961 218.49743652 -53.43310547 217.72338867 C-53.61760254 216.7357251 -53.80209961 215.74806152 -53.9921875 214.73046875 C-54.1763623 213.75231201 -54.36053711 212.77415527 -54.55029297 211.76635742 C-55.03149755 208.80624389 -55.16187541 205.99469503 -55 203 C-55.99515625 202.89945313 -56.9903125 202.79890625 -58.015625 202.6953125 C-62.24864488 202.08482169 -65.8701416 200.6268893 -69.75 198.875 C-70.8004248 198.40368652 -70.8004248 198.40368652 -71.87207031 197.92285156 C-90.40777151 189.40782775 -105.44836394 176.03145706 -113.00050926 156.82656288 C-114.68180743 152.07184648 -115.76835152 147.21437638 -116.85668945 142.2956543 C-117.11247269 141.17081131 -117.36825592 140.04596832 -117.63179016 138.88703918 C-118.4674249 135.20128637 -119.2908446 131.51293719 -120.11328125 127.82421875 C-120.69244741 125.24964182 -121.2720594 122.67516514 -121.85209656 120.1007843 C-123.06256902 114.72179079 -124.26579704 109.34121344 -125.46508789 103.9597168 C-126.85020428 97.74499222 -128.24879549 91.53341064 -129.65410453 85.32322377 C-131.00977545 79.3302053 -132.35414071 73.33470875 -133.69389915 67.33811378 C-134.26378748 64.79328542 -134.83677271 62.24914855 -135.41289711 59.70572472 C-136.21507407 56.15836071 -137.00434432 52.60836468 -137.7902832 49.05737305 C-138.15092865 47.48087479 -138.15092865 47.48087479 -138.51885986 45.87252808 C-138.73047256 44.90406448 -138.94208527 43.93560089 -139.16011047 42.93778992 C-139.34756993 42.09996318 -139.53502939 41.26213644 -139.72816944 40.39892101 C-140.03796712 37.6649379 -139.75752052 35.6390759 -139 33 C-134.70987462 28.04140707 -128.43027838 27.29210597 -122.31591797 25.88378906 C-121.13316788 25.60035141 -119.95041779 25.31691376 -118.73182678 25.02488708 C-115.49608775 24.25267669 -112.25798182 23.49255522 -109.01799917 22.73848057 C-105.61660933 21.94454392 -102.21836517 21.13734195 -98.8196106 20.33221436 C-93.10721245 18.98130068 -87.39228955 17.64151139 -81.67578125 16.30810547 C-75.08920135 14.77158872 -68.50713816 13.21680935 -61.92717445 11.65222192 C-55.57653539 10.14269429 -49.22267698 8.64715414 -42.8673439 7.15752411 C-40.17353756 6.52581725 -37.48096621 5.88919519 -34.78930283 5.24842072 C-31.01628962 4.35093973 -27.23868306 3.47388844 -23.46044922 2.59863281 C-22.35771164 2.33374557 -21.25497406 2.06885834 -20.11882019 1.79594421 C-13.50912586 0.28599859 -6.77496682 -1.15861643 0 0 Z M-17.47827148 16.94236755 C-18.36988983 17.15127625 -19.26150818 17.36018494 -20.18014526 17.57542419 C-21.15065826 17.80762161 -22.12117126 18.03981903 -23.12109375 18.27905273 C-24.14913116 18.52128571 -25.17716858 18.76351868 -26.23635864 19.01309204 C-29.63775881 19.81567798 -33.0376185 20.6246008 -36.4375 21.43359375 C-38.79865641 21.99208637 -41.15990444 22.55019176 -43.52124023 23.10792542 C-49.74146277 24.57824159 -55.96039036 26.05396561 -62.17907715 27.53076172 C-68.50660859 29.03234006 -74.83540228 30.52857837 -81.1640625 32.02539062 C-90.40298066 34.21142786 -99.64147892 36.39922359 -108.87890625 38.59155273 C-109.84941925 38.82172592 -110.81993225 39.05189911 -111.81985474 39.28904724 C-112.71147308 39.50077576 -113.60309143 39.71250427 -114.52172852 39.9306488 C-115.29452652 40.11408561 -116.06732452 40.29752241 -116.86354065 40.48651791 C-118.9122078 40.9788998 -120.95679437 41.48547052 -123 42 C-122.87625 43.155 -122.7525 44.31 -122.625 45.5 C-122.55539063 46.1496875 -122.48578125 46.799375 -122.4140625 47.46875 C-122.04132062 49.74739848 -121.54115164 51.92191422 -120.97412109 54.15820312 C-120.65266113 55.42599609 -120.33120117 56.69378906 -120 58 C-102.70876013 53.75371083 -85.41939217 49.4999186 -68.13256836 45.23568726 C-59.9446275 43.21630997 -51.75500738 41.20408221 -43.56311035 39.20080566 C-39.08046599 38.10311323 -34.59945479 36.99887337 -30.11889648 35.8927002 C-28.04099944 35.38123661 -25.962383 34.87268685 -23.88305664 34.36706543 C-21.02429304 33.67148762 -18.16816941 32.96596802 -15.3125 32.2578125 C-14.47400513 32.0564267 -13.63551025 31.85504089 -12.77160645 31.64755249 C-10.83102786 31.16069603 -8.91203049 30.58907882 -7 30 C-5.50658031 27.01316063 -6.59351324 25.04839022 -7.4375 21.875 C-7.72496094 20.77929688 -8.01242188 19.68359375 -8.30859375 18.5546875 C-8.65083984 17.29011719 -8.65083984 17.29011719 -9 16 C-12.21885741 16 -14.42225428 16.21846062 -17.47827148 16.94236755 Z M-11.70137024 46.02502441 C-12.6169722 46.25220657 -13.53257416 46.47938873 -14.47592163 46.7134552 C-15.46782501 46.96592514 -16.45972839 47.21839508 -17.48168945 47.47851562 C-18.53580521 47.74186203 -19.58992096 48.00520844 -20.67597961 48.27653503 C-24.15650367 49.14753621 -27.63487044 50.02685092 -31.11328125 50.90625 C-33.52739312 51.51210952 -35.94163547 52.11744936 -38.35600281 52.72229004 C-44.0589051 54.15229909 -49.76047029 55.58754022 -55.46141547 57.02533007 C-62.59077097 58.82302604 -69.72216622 60.61257707 -76.85351562 62.40234375 C-89.5706573 65.59503237 -102.28596779 68.79495248 -115 72 C-116.05916586 75.70275017 -115.77105647 78.02140584 -114.8918457 81.79980469 C-114.49066277 83.55378571 -114.49066277 83.55378571 -114.08137512 85.34320068 C-113.78252914 86.60666321 -113.48368317 87.87012573 -113.17578125 89.171875 C-112.86929615 90.49528845 -112.56357898 91.81887996 -112.2585907 93.14263916 C-111.45118728 96.63680072 -110.63263155 100.12826054 -109.81195068 103.61932373 C-108.99299586 107.11301724 -108.18569419 110.60939978 -107.37695312 114.10546875 C-105.86434935 120.63470268 -104.33133033 127.15886675 -102.78564453 133.68035889 C-102.30106778 135.72787635 -101.81893605 137.7759764 -101.34082031 139.82501221 C-100.81445008 142.08060816 -100.27860314 144.33365124 -99.73828125 146.5859375 C-99.46927002 147.7207959 -99.20025879 148.8556543 -98.9230957 150.02490234 C-94.33996156 164.79614611 -81.12965737 175.05600228 -68 182 C-57.98989606 186.91385879 -50.21115658 189.95525849 -39.1640625 187.15625 C-38.32587982 186.94947632 -37.48769714 186.74270264 -36.62411499 186.52966309 C-34.85591022 186.08853211 -33.08928979 185.6410073 -31.32421875 185.1875 C-28.64629792 184.50542465 -25.96106742 183.86133699 -23.2734375 183.21875 C-10.70569432 180.18611404 -10.70569432 180.18611404 -1 172 C-0.16210938 171.05898437 0.67578125 170.11796875 1.5390625 169.1484375 C11.43941396 155.98504886 17.0329607 142.57655658 17 126 C16.65861029 123.66273635 16.2388601 121.3358107 15.7487793 119.02514648 C15.61361499 118.38235213 15.47845068 117.73955778 15.33919048 117.07728481 C13.76945631 109.71805575 11.99665287 102.4058588 10.20703125 95.09765625 C9.85232897 93.63942321 9.49789814 92.18112411 9.14372253 90.72276306 C8.22417174 86.93949693 7.3010112 83.15712127 6.37701416 79.37493896 C5.42943661 75.49334414 4.48538866 71.61089109 3.54101562 67.72851562 C1.69740278 60.15151445 -0.15003633 52.5754534 -2 45 C-5.43023137 44.90039073 -8.3768357 45.18905298 -11.70137024 46.02502441 Z M-18.1640625 196.49609375 C-19.36804688 196.80740234 -20.57203125 197.11871094 -21.8125 197.43945312 C-23.070625 197.76880859 -24.32875 198.09816406 -25.625 198.4375 C-26.89085937 198.76298828 -28.15671875 199.08847656 -29.4609375 199.42382812 C-35.12960425 200.42031307 -35.12960425 200.42031307 -40 203 C-39.95995895 204.50307931 -39.83845342 206.00398404 -39.6875 207.5 C-39.54054687 208.96373047 -39.54054687 208.96373047 -39.390625 210.45703125 C-38.63510065 217.30963711 -37.82646038 224.15562426 -37 231 C-37.66 231 -38.32 231 -39 231 C-39.33 231.66 -39.66 232.32 -40 233 C-49.57 233.33 -59.14 233.66 -69 234 C-69 261.39 -69 288.78 -69 317 C-33.69 317 1.62 317 38 317 C38 289.61 38 262.22 38 234 C25.79 233.67 13.58 233.34 1 233 C-4.78520387 227.21479613 -4.81397272 217.5252131 -6.0625 209.6875 C-6.40531673 207.54521401 -6.75026999 205.40326851 -7.09765625 203.26171875 C-7.32207397 201.85345825 -7.32207397 201.85345825 -7.55102539 200.41674805 C-7.96671244 197.87047934 -7.96671244 197.87047934 -9 195 C-12.32154403 195 -14.94747777 195.66402501 -18.1640625 196.49609375 Z M-140 234 C-140.33 239.61 -140.66 245.22 -141 251 C-143.04051364 262.81350003 -146.43151569 272.55542484 -155.6796875 280.5625 C-158 282 -158 282 -166 285 C-166 295.56 -166 306.12 -166 317 C-138.61 317 -111.22 317 -83 317 C-83 289.61 -83 262.22 -83 234 C-101.81 234 -120.62 234 -140 234 Z M52 234 C52 261.39 52 288.78 52 317 C61.24 317 70.48 317 80 317 C80 289.61 80 262.22 80 234 C70.76 234 61.52 234 52 234 Z M94 234 C94 261.39 94 288.78 94 317 C118.42865852 318.6028595 118.42865852 318.6028595 139 309 C146.82244944 300.13075076 146.32797507 288.30439202 146.26074219 277.12304688 C146.25001829 275.00361531 146.26069362 272.88503101 146.2734375 270.765625 C146.28703199 259.3620202 146.27461447 249.5403131 138 241 C133.45397159 236.80847839 130.18364173 235.8119301 124 235 C123.98018066 236.08007324 123.96036133 237.16014648 123.93994141 238.27294922 C123.86398377 242.27253913 123.77525184 246.27176052 123.68261719 250.27099609 C123.64428659 252.00334407 123.60944094 253.73577274 123.578125 255.46826172 C123.53256235 257.95569749 123.47455497 260.44257566 123.4140625 262.9296875 C123.39673569 264.09538773 123.39673569 264.09538773 123.37905884 265.28463745 C123.22774341 270.77225659 123.22774341 270.77225659 121 273 C119.125 273.265625 119.125 273.265625 117 273.25 C116.29875 273.25515625 115.5975 273.2603125 114.875 273.265625 C113 273 113 273 111 271 C110.75430728 268.20783209 110.62636862 265.50759395 110.5859375 262.7109375 C110.56657135 261.89251373 110.5472052 261.07408997 110.5272522 260.23086548 C110.46738918 257.61235024 110.42104468 254.99379119 110.375 252.375 C110.33682636 250.60154314 110.29777499 248.82810495 110.2578125 247.0546875 C110.16168229 242.70327625 110.07767649 238.35177821 110 234 C104.72 234 99.44 234 94 234 Z M160 266 C160 271.94 160 277.88 160 284 C166.27 284 172.54 284 179 284 C179 278.06 179 272.12 179 266 C172.73 266 166.46 266 160 266 Z M-166 331 C-166 336.61 -166 342.22 -166 348 C-129.37 348 -92.74 348 -55 348 C-55 342.39 -55 336.78 -55 331 C-91.63 331 -128.26 331 -166 331 Z M-41 331 C-41.01981934 331.83772949 -41.03963867 332.67545898 -41.06005859 333.53857422 C-41.13810612 336.64365834 -41.22479635 339.74834539 -41.31738281 342.85302734 C-41.37454036 344.85886971 -41.42168596 346.86498918 -41.46875 348.87109375 C-41.50742188 350.12792969 -41.54609375 351.38476562 -41.5859375 352.6796875 C-41.63306885 354.42354736 -41.63306885 354.42354736 -41.68115234 356.20263672 C-42 359 -42 359 -44 361 C-46.24658203 361.31884766 -46.24658203 361.31884766 -49.0078125 361.4140625 C-49.99394531 361.45273437 -50.98007813 361.49140625 -51.99609375 361.53125 C-53.54490234 361.57765625 -53.54490234 361.57765625 -55.125 361.625 C-56.68541016 361.68300781 -56.68541016 361.68300781 -58.27734375 361.7421875 C-60.85138311 361.83664766 -63.42541155 361.92221214 -66 362 C-67.35811689 366.51374144 -68.41676951 370.89155128 -69.125 375.5625 C-69.37636719 377.17318359 -69.37636719 377.17318359 -69.6328125 378.81640625 C-70.11457784 382.45929777 -70.11457784 382.45929777 -70 388 C-43.6 388 -17.2 388 10 388 C10 369.19 10 350.38 10 331 C0.43 331 -9.14 331 -19 331 C-16.54048207 339.28057889 -16.54048207 339.28057889 -13.484375 347.19921875 C-13.03835937 348.26333984 -12.59234375 349.32746094 -12.1328125 350.42382812 C-11.20434199 352.61517589 -10.26669886 354.80265797 -9.3203125 356.98632812 C-5.03357493 367.29580664 -5.03357493 367.29580664 -7 373 C-10.6441774 375.4294516 -12.71241272 375.16179575 -17 375 C-21.70038441 366.2866021 -25.19340421 357.15502732 -28.75 347.9375 C-29.63144015 345.66032606 -30.51427078 343.38372009 -31.40020752 341.10829163 C-31.94723481 339.70266923 -32.49156168 338.29599227 -33.03289795 336.88816833 C-34.11173057 333.70267413 -34.11173057 333.70267413 -36 331 C-37.66617115 330.95936168 -39.33388095 330.957279 -41 331 Z M-141 362 C-142.66060133 367.61161485 -142.66060133 367.61161485 -143.6328125 373.18359375 C-143.71660156 373.88291016 -143.80039063 374.58222656 -143.88671875 375.30273438 C-144.00466797 376.35944336 -144.00466797 376.35944336 -144.125 377.4375 C-144.21136719 378.16904297 -144.29773438 378.90058594 -144.38671875 379.65429688 C-144.59628393 381.43560094 -144.79887868 383.21772281 -145 385 C-143.97060303 385.029729 -143.97060303 385.029729 -142.92041016 385.06005859 C-139.82154221 385.15510945 -136.72336706 385.26486847 -133.625 385.375 C-132.00464844 385.42140625 -132.00464844 385.42140625 -130.3515625 385.46875 C-128.8046875 385.52675781 -128.8046875 385.52675781 -127.2265625 385.5859375 C-125.79691162 385.63306885 -125.79691162 385.63306885 -124.33837891 385.68115234 C-122 386 -122 386 -120 388 C-119.734375 389.875 -119.734375 389.875 -119.75 392 C-119.74226563 393.051875 -119.74226563 393.051875 -119.734375 394.125 C-120 396 -120 396 -122 398 C-124.52197266 398.31884766 -124.52197266 398.31884766 -127.6640625 398.4140625 C-128.78554687 398.45273437 -129.90703125 398.49140625 -131.0625 398.53125 C-132.238125 398.5621875 -133.41375 398.593125 -134.625 398.625 C-135.80835938 398.66367187 -136.99171875 398.70234375 -138.2109375 398.7421875 C-141.14046691 398.83668845 -144.06998597 398.92224558 -147 399 C-148.30161736 403.36424645 -149.3845433 407.62349337 -150.125 412.125 C-150.29257813 413.11757813 -150.46015625 414.11015625 -150.6328125 415.1328125 C-150.9742878 417.79922599 -151.0265297 420.31711357 -151 423 C-150.13197754 423.01981934 -149.26395508 423.03963867 -148.36962891 423.06005859 C-145.15273733 423.13809872 -141.93622955 423.22478881 -138.71972656 423.31738281 C-137.32691428 423.35569327 -135.93400235 423.39054259 -134.54101562 423.421875 C-132.54013692 423.46747907 -130.53957854 423.52651623 -128.5390625 423.5859375 C-127.33459473 423.6173584 -126.13012695 423.6487793 -124.88916016 423.68115234 C-122 424 -122 424 -120 426 C-119.734375 427.875 -119.734375 427.875 -119.75 430 C-119.74226563 431.051875 -119.74226563 431.051875 -119.734375 432.125 C-120 434 -120 434 -122 436 C-124.43176397 436.24501495 -126.75864884 436.37324921 -129.1953125 436.4140625 C-130.25647781 436.44311172 -130.25647781 436.44311172 -131.33908081 436.4727478 C-133.60093085 436.53257652 -135.8628317 436.57894101 -138.125 436.625 C-139.6575744 436.66317686 -141.19012728 436.70222842 -142.72265625 436.7421875 C-146.48159624 436.83828039 -150.24063668 436.92229849 -154 437 C-154.50505263 439.89503383 -155.0042022 442.79087953 -155.5 445.6875 C-155.64308594 446.50412109 -155.78617187 447.32074219 -155.93359375 448.16210938 C-156.06894531 448.95810547 -156.20429688 449.75410156 -156.34375 450.57421875 C-156.53227539 451.66609497 -156.53227539 451.66609497 -156.72460938 452.7800293 C-157.02558913 455.20627832 -157.04505583 457.55759834 -157 460 C-155.95021973 460.01981934 -154.90043945 460.03963867 -153.81884766 460.06005859 C-149.93106739 460.13602198 -146.04366597 460.22475298 -142.15625 460.31738281 C-140.47240671 460.35571104 -138.78848045 460.39055712 -137.10449219 460.421875 C-134.68654694 460.46744287 -132.26917472 460.52544923 -129.8515625 460.5859375 C-129.0963028 460.59748871 -128.34104309 460.60903992 -127.56289673 460.62094116 C-122.22774341 460.77225659 -122.22774341 460.77225659 -120 463 C-119.734375 464.875 -119.734375 464.875 -119.75 467 C-119.74226563 468.051875 -119.74226563 468.051875 -119.734375 469.125 C-120 471 -120 471 -122 473 C-124.86436824 473.24581843 -127.6390314 473.37369381 -130.5078125 473.4140625 C-131.34843231 473.43342865 -132.18905212 473.4527948 -133.05514526 473.4727478 C-135.74499303 473.53261658 -138.43488343 473.57895771 -141.125 473.625 C-142.94663344 473.6631731 -144.7682487 473.70222444 -146.58984375 473.7421875 C-151.05974852 473.83832398 -155.52973779 473.92232769 -160 474 C-160.50612064 476.8740422 -161.00506541 479.74902873 -161.5 482.625 C-161.64308594 483.43324219 -161.78617187 484.24148438 -161.93359375 485.07421875 C-162.06894531 485.86699219 -162.20429688 486.65976562 -162.34375 487.4765625 C-162.46943359 488.19924316 -162.59511719 488.92192383 -162.72460938 489.66650391 C-163.05035721 492.42669698 -163 495.22065161 -163 498 C-142.87 498 -122.74 498 -102 498 C-100.97519531 491.2246875 -99.95039063 484.449375 -98.89453125 477.46875 C-98.23380828 473.10285178 -97.57303919 468.73696064 -96.91210938 464.37109375 C-95.86959762 457.48460397 -94.82723062 450.59809256 -93.78588867 443.71142578 C-92.94653717 438.16073281 -92.10653482 432.61013873 -91.26595688 427.05963135 C-90.93520719 424.87536938 -90.60461262 422.69108391 -90.27417374 420.5067749 C-88.6750062 409.93902394 -87.06994321 399.37260556 -85.39599609 388.81640625 C-85.21497424 387.67236454 -85.21497424 387.67236454 -85.03029537 386.50521088 C-84.48577598 383.06767591 -83.93674558 379.6310336 -83.38008118 376.19543457 C-83.10239143 374.45417297 -83.10239143 374.45417297 -82.8190918 372.67773438 C-82.65934372 371.69107788 -82.49959564 370.70442139 -82.33500671 369.68786621 C-81.89693355 366.62450865 -81.89693355 366.62450865 -82 362 C-101.47 362 -120.94 362 -141 362 Z " fill="#000000" transform="translate(255,0)"/>
<path d="M0 0 C2.4921875 1.8203125 2.4921875 1.8203125 4.875 4.125 C8.01210573 7.12447174 11.15787529 9.93552985 14.5625 12.625 C17.34937641 15.06704992 17.98678692 15.96168206 19.25 19.625 C19 23 19 23 17.5625 25.9375 C14.78342792 28.17431411 12.87409293 28.96973822 9.2734375 28.7421875 C4.18343656 27.08050334 0.66872599 22.72668375 -3 19 C-3.78503906 18.28457031 -4.57007813 17.56914062 -5.37890625 16.83203125 C-8.51350467 13.93294828 -10.68294408 11.85104485 -12.1875 7.8125 C-11.95934909 4.39023633 -11.13475313 2.66844141 -9 0 C-5.3988443 -1.20038523 -3.65306276 -0.96133231 0 0 Z " fill="#000000" transform="translate(459,299)"/>
<path d="M0 0 C2.40179373 2.6269619 2.99252302 4.14139327 3.0234375 7.69140625 C1.50603171 12.59691275 -1.705192 15.27800693 -5.375 18.75 C-6.40367187 19.75740234 -6.40367187 19.75740234 -7.453125 20.78515625 C-14.74072204 27.86008023 -14.74072204 27.86008023 -19.9375 28.4375 C-23.2247514 28.34045937 -23.86605059 28.10781294 -26.5625 25.9375 C-28 23 -28 23 -28.25 19.625 C-26.72750616 15.20976786 -24.77594669 13.61273762 -21.19140625 10.765625 C-19.05773608 9.0465182 -17.2040062 7.22880648 -15.3125 5.25 C-10.36621084 0.2925454 -7.21312177 -2.13722126 0 0 Z " fill="#000000" transform="translate(475,224)"/>
<path d="M0 0 C1.24007813 -0.00386719 2.48015625 -0.00773437 3.7578125 -0.01171875 C5.70300781 0.00568359 5.70300781 0.00568359 7.6875 0.0234375 C8.98429687 0.01183594 10.28109375 0.00023437 11.6171875 -0.01171875 C12.85726563 -0.00785156 14.09734375 -0.00398438 15.375 0 C16.51324219 0.00338379 17.65148437 0.00676758 18.82421875 0.01025391 C21.6875 0.3984375 21.6875 0.3984375 23.55712891 1.80224609 C24.96651144 3.79242817 25.09004418 4.97454946 25.0625 7.3984375 C25.07410156 8.419375 25.07410156 8.419375 25.0859375 9.4609375 C24.55088135 12.06277917 23.81321884 12.80234409 21.6875 14.3984375 C18.82421875 14.78662109 18.82421875 14.78662109 15.375 14.796875 C14.13492187 14.80074219 12.89484375 14.80460937 11.6171875 14.80859375 C9.67199219 14.79119141 9.67199219 14.79119141 7.6875 14.7734375 C6.39070313 14.78503906 5.09390625 14.79664063 3.7578125 14.80859375 C2.51773437 14.80472656 1.27765625 14.80085938 0 14.796875 C-1.13824219 14.79349121 -2.27648437 14.79010742 -3.44921875 14.78662109 C-6.3125 14.3984375 -6.3125 14.3984375 -8.18212891 12.99462891 C-9.59151144 11.00444683 -9.71504418 9.82232554 -9.6875 7.3984375 C-9.69523437 6.7178125 -9.70296875 6.0371875 -9.7109375 5.3359375 C-8.61843831 0.02339242 -4.74658958 0.01411076 0 0 Z " fill="#000000" transform="translate(470.3125,267.6015625)"/>
</svg>
