<?xml version="1.0" encoding="UTF-8"?>
<svg version="1.1" xmlns="http://www.w3.org/2000/svg" width="500" height="500">
<path d="M0 0 C4.85804417 2.11174083 9.25530753 4.76682484 13.73291016 7.58349609 C16.13934994 9.08706745 18.57069013 10.54159016 21.01171875 11.98828125 C26.02625707 14.9620908 31.01618957 17.97504376 36 21 C36.62003906 21.37511719 37.24007812 21.75023438 37.87890625 22.13671875 C45.28198785 26.61979137 52.57657449 31.26238377 59.8203125 35.99755859 C63.89179167 38.65718376 68.00918361 41.19756452 72.1875 43.6875 C77.74192279 47.26908665 82.09369527 50.893502 83.56640625 57.56640625 C84.08854889 65.37632704 81.10874341 70.58774637 77 77 C76.22870294 78.23978861 75.45927782 79.48074312 74.69140625 80.72265625 C72.99626032 83.45469442 71.28931196 86.17888095 69.57421875 88.8984375 C63.80308264 98.06930527 58.3207562 107.36657286 53.125 116.875 C49.46565766 123.55579815 45.52070816 129.96088695 41.32348633 136.31494141 C36.263299 144.02089142 31.64397787 151.97768725 26.984375 159.9296875 C24.72741299 163.77888983 22.42459584 167.58958999 20.0625 171.375 C16.32705543 177.38316769 12.79486937 183.5028659 9.25 189.625 C4.98356834 196.98300773 0.64444347 204.27146775 -3.9375 211.4375 C-12.90847238 225.4684803 -21.36462846 239.81606842 -29.81542969 254.16455078 C-35.38541255 263.6216632 -41.00483366 273.0477119 -46.6875 282.4375 C-47.05265717 283.04099274 -47.41781433 283.64448547 -47.79403687 284.26626587 C-52.31523381 291.7256803 -56.96380054 299.06514686 -61.89404297 306.26098633 C-64.77195434 310.51315326 -66.99032867 314.89680984 -69.19140625 319.5234375 C-73.58915136 327.97698642 -78.92052654 335.94445421 -84 344 C-85.68958012 346.6861988 -87.37679898 349.37386552 -89.0625 352.0625 C-89.45356934 352.68455322 -89.84463867 353.30660645 -90.24755859 353.94750977 C-94.23712158 360.32092174 -98.0780246 366.7834927 -101.89086914 373.26391602 C-102.3677417 374.06756592 -102.84461426 374.87121582 -103.3359375 375.69921875 C-103.75407715 376.40908936 -104.1722168 377.11895996 -104.60302734 377.8503418 C-107.57850889 382.42900572 -110.29364975 385.50766295 -115.09375 388.171875 C-116.11017578 388.74526611 -117.12660156 389.31865723 -118.17382812 389.90942383 C-119.27146484 390.51681396 -120.36910156 391.1242041 -121.5 391.75 C-123.8559004 393.07909283 -126.21029983 394.41049662 -128.5625 395.74609375 C-129.17065552 396.09044968 -129.77881104 396.4348056 -130.40539551 396.78959656 C-137.19405586 400.6490629 -143.84434098 404.72952974 -150.5 408.8125 C-160.22036341 414.76281902 -170.03110814 420.48166217 -180.04345703 425.92675781 C-183.32181156 427.72506659 -186.56793332 429.57910768 -189.8125 431.4375 C-190.89144531 432.05496094 -191.97039062 432.67242187 -193.08203125 433.30859375 C-194.95819871 434.39611786 -196.81264882 435.52250309 -198.63671875 436.6953125 C-202.13736126 438.62789861 -205.10453126 438.73187595 -209 438 C-211.8100346 436.20636089 -213.50940468 434.98119065 -215 432 C-215.09760057 429.19193725 -215.13300445 426.41383078 -215.11499023 423.60595703 C-215.11184783 422.75705965 -215.10870543 421.90816227 -215.1054678 421.03354073 C-215.03978756 411.77853918 -214.62266478 402.54686845 -214.16015625 393.3046875 C-214.07255218 391.49253857 -213.98527382 389.68037387 -213.89830017 387.86819458 C-213.7170475 384.11185314 -213.53272925 380.35567984 -213.34594727 376.59960938 C-213.10774389 371.80675264 -212.87618386 367.01360279 -212.6467371 362.22031975 C-212.46790189 358.49516087 -212.2862107 354.77014564 -212.10360527 351.04516983 C-212.01716971 349.27751322 -211.93145761 347.50982106 -211.84651375 345.74209213 C-211.72737849 343.27436583 -211.60454062 340.80685021 -211.48071289 338.33935547 C-211.44690521 337.62545151 -211.41309753 336.91154755 -211.37826538 336.17601013 C-210.60322256 321.0587203 -210.60322256 321.0587203 -207.9609375 316.75390625 C-207.54875977 316.06707764 -207.13658203 315.38024902 -206.71191406 314.67260742 C-206.0501416 313.62810425 -206.0501416 313.62810425 -205.375 312.5625 C-204.92350586 311.82169189 -204.47201172 311.08088379 -204.00683594 310.31762695 C-201.05166778 305.51784157 -197.86639043 300.92126177 -194.5625 296.35546875 C-192.8787974 293.81728707 -191.56826211 291.24513104 -190.25 288.5 C-185.12891062 277.87646351 -178.53137552 268.03177091 -172.27246094 258.05395508 C-171.87317383 257.4173999 -171.47388672 256.78084473 -171.0625 256.125 C-170.6593457 255.48264404 -170.25619141 254.84028809 -169.84082031 254.1784668 C-162.81662797 242.95107059 -156.06976369 231.55113159 -149.375 220.125 C-144.94342583 212.56641269 -140.4588785 205.03966397 -135.95928955 197.52142334 C-135.16321285 196.19071804 -134.36790418 194.85955293 -133.57342529 193.52789307 C-129.65066735 186.95483048 -125.69290009 180.43431792 -121.39453125 174.09716797 C-118.83710556 170.2511794 -116.48925667 166.27905795 -114.125 162.3125 C-113.64675781 161.51650391 -113.16851562 160.72050781 -112.67578125 159.90039062 C-109.77160435 155.04604744 -106.9415142 150.15330332 -104.1484375 145.234375 C-100.06529165 138.05318093 -95.80348894 130.98820936 -91.5 123.9375 C-90.78499096 122.76247035 -90.07014712 121.58734017 -89.35546875 120.41210938 C-87.59336112 117.51616878 -85.82708275 114.62280604 -84.05831909 111.73092651 C-83.34329672 110.56147659 -82.62889588 109.39164645 -81.91506958 108.22146606 C-80.85252711 106.47999647 -79.78785371 104.73984659 -78.72265625 103 C-78.10398682 101.98808594 -77.48531738 100.97617188 -76.84790039 99.93359375 C-74.95073292 96.92178712 -72.96322365 93.98905916 -70.9375 91.0625 C-68.1783539 86.97448083 -65.88051518 82.88424112 -63.75 78.4375 C-59.66812412 70.0047155 -54.59352046 62.27489079 -49.53320312 54.40380859 C-47.14063526 50.6526584 -44.81530483 46.86168374 -42.5 43.0625 C-41.8349646 41.97255737 -41.8349646 41.97255737 -41.15649414 40.8605957 C-38.70478723 36.83181387 -36.27373097 32.79112975 -33.85546875 28.7421875 C-33.32695312 27.85781006 -32.7984375 26.97343262 -32.25390625 26.06225586 C-31.24504905 24.37175964 -30.23836573 22.67996322 -29.234375 20.98657227 C-15.23902993 -2.49003757 -15.23902993 -2.49003757 0 0 Z M-6 17 C-8.05468056 19.96498208 -10.0308179 22.97762069 -12 26 C-12.46067871 26.70237793 -12.92135742 27.40475586 -13.39599609 28.12841797 C-14.94869346 30.51201017 -16.47603924 32.91045101 -18 35.3125 C-18.77597534 36.49561768 -18.77597534 36.49561768 -19.56762695 37.70263672 C-20.04031006 38.45689941 -20.51299316 39.21116211 -21 39.98828125 C-21.433125 40.66415283 -21.86625 41.34002441 -22.3125 42.03637695 C-23.22556222 44.01871359 -23.22556222 44.01871359 -22.33886719 46.12304688 C-20.10359416 49.25666814 -16.62821471 50.53924034 -13.25 52.1875 C-7.5698608 55.0713645 -2.07437701 58.06173729 3.25 61.5625 C3.82041016 61.93737549 4.39082031 62.31225098 4.97851562 62.69848633 C5.82446289 63.25572388 5.82446289 63.25572388 6.6875 63.82421875 C12.04601898 67.34390633 17.52726343 70.66198839 23 74 C25.31037284 75.4107222 27.62057992 76.82171525 29.93066406 78.23291016 C31.47261963 79.17458413 33.01491535 80.11570144 34.55761719 81.05615234 C39.39180457 84.00580765 44.20392403 86.98877434 49 90 C59.68107083 75.38851916 59.68107083 75.38851916 65 59 C59.03117191 54.14738976 51.85221255 50.87391501 44.97265625 47.52734375 C40.09689351 45.02218839 35.57396433 42.01147141 31 39 C23.7508197 34.32883161 16.44145426 29.75231766 9.125 25.1875 C8.2086377 24.61177246 7.29227539 24.03604492 6.34814453 23.44287109 C5.47270996 22.89840332 4.59727539 22.35393555 3.6953125 21.79296875 C2.91172363 21.3033667 2.12813477 20.81376465 1.32080078 20.30932617 C-1.05845933 18.967019 -3.44391923 17.95619707 -6 17 Z M-32 60 C-33.56160685 62.3143663 -35.07438973 64.63907773 -36.5625 67 C-36.98724609 67.66773437 -37.41199219 68.33546875 -37.84960938 69.0234375 C-38.90289439 70.68029033 -39.95184735 72.3398956 -41 74 C-37.69449647 76.72049486 -34.34350964 79.14988301 -30.71875 81.42578125 C-29.7186792 82.05379639 -28.7186084 82.68181152 -27.68823242 83.32885742 C-26.63611572 83.98345947 -25.58399902 84.63806152 -24.5 85.3125 C-23.41501221 85.98966064 -22.33002441 86.66682129 -21.2121582 87.36450195 C-14.99749715 91.21784351 -8.76609543 94.8358407 -2.2734375 98.1953125 C4.64306476 102.00846769 11.22607608 106.40116429 17.87988281 110.65087891 C20.59183916 112.37661253 23.31846917 114.07574351 26.0625 115.75 C26.79597656 116.19859375 27.52945313 116.6471875 28.28515625 117.109375 C29.97376101 118.15363571 29.97376101 118.15363571 32 118 C33.83041655 115.39891054 33.83041655 115.39891054 35.625 112.1875 C36.25664062 111.10855469 36.88828125 110.02960938 37.5390625 108.91796875 C39.22384617 106.0967832 39.22384617 106.0967832 39 103 C36.82608464 101.30423443 36.82608464 101.30423443 33.9375 99.734375 C32.29491211 98.78159668 32.29491211 98.78159668 30.61914062 97.80957031 C30.02979736 97.47429321 29.4404541 97.13901611 28.83325195 96.7935791 C25.7191862 95.02089644 22.62679904 93.21100597 19.53125 91.40625 C18.89819946 91.0384845 18.26514893 90.67071899 17.61291504 90.29180908 C11.49948912 86.73179842 5.48831041 83.01645227 -0.5 79.25 C-1.47267822 78.63922607 -2.44535645 78.02845215 -3.44750977 77.39916992 C-8.19989145 74.40867804 -12.94265651 71.40312394 -17.68359375 68.39453125 C-19.01583984 67.55003418 -19.01583984 67.55003418 -20.375 66.68847656 C-22.04454354 65.62910537 -23.71259115 64.56737177 -25.37890625 63.50292969 C-26.10851562 63.03918945 -26.838125 62.57544922 -27.58984375 62.09765625 C-28.22784912 61.69039307 -28.86585449 61.28312988 -29.52319336 60.86352539 C-30.85875248 59.91587218 -30.85875248 59.91587218 -32 60 Z M-50 90 C-55.12142507 97.05363445 -59.66443749 104.31679838 -64 111.875 C-65.16666667 113.89322917 -66.33333333 115.91145833 -67.5 117.9296875 C-68.07862793 118.93330322 -68.65725586 119.93691895 -69.25341797 120.97094727 C-74.65628461 130.34100128 -80.18063672 139.61633991 -85.875 148.8125 C-90.67331783 156.57829874 -95.44800635 164.35559724 -100.11181641 172.203125 C-102.25067542 175.79048482 -104.47495955 179.31019892 -106.75 182.8125 C-108.82372615 186.03409735 -110.66423351 189.23016052 -112.3125 192.6875 C-116.52122128 201.39472337 -122.03655829 209.44436811 -127.296875 217.54296875 C-132.68639888 225.84195532 -137.76766446 234.28611418 -142.74267578 242.83984375 C-152.27198371 259.21174987 -161.87104249 275.55301408 -172 291.5625 C-172.7281189 292.71468018 -172.7281189 292.71468018 -173.47094727 293.89013672 C-176.10586606 298.0476948 -178.768599 302.18542956 -181.45703125 306.30859375 C-182.01841797 307.17734131 -182.57980469 308.04608887 -183.15820312 308.94116211 C-184.24070836 310.61556255 -185.33155405 312.28460749 -186.43164062 313.94750977 C-187.15577148 315.07177368 -187.15577148 315.07177368 -187.89453125 316.21875 C-188.54192261 317.2077832 -188.54192261 317.2077832 -189.20239258 318.21679688 C-190.31815222 320.17224314 -190.31815222 320.17224314 -189 323 C-186.45327745 324.68749704 -186.45327745 324.68749704 -183.4375 326.1875 C-182.42558594 326.71730469 -181.41367188 327.24710938 -180.37109375 327.79296875 C-179.19740234 328.39044922 -179.19740234 328.39044922 -178 329 C-169.59938434 316.7064161 -161.92620426 303.94001028 -154.25 291.1875 C-153.62424072 290.15044922 -152.99848145 289.11339844 -152.35375977 288.04492188 C-149.43076272 283.17183662 -146.58136491 278.28075753 -143.88671875 273.27734375 C-141.30949938 268.50165612 -138.50894512 263.92957443 -135.5625 259.375 C-129.98123145 250.64951849 -124.63239652 241.79536576 -119.34008789 232.89208984 C-115.83981895 227.01567039 -112.25778173 221.20882656 -108.54101562 215.46655273 C-107.02759174 213.04416339 -105.65214923 210.584442 -104.3125 208.0625 C-97.78330463 195.8873691 -90.40988994 184.15366965 -83 172.5 C-73.60164303 157.71392344 -64.75425228 142.61118191 -55.94995117 127.46606445 C-51.25345011 119.39997684 -46.54269968 111.33108173 -41.375 103.5546875 C-40.18220891 101.74605318 -39.0786514 99.87894115 -38 98 C-38.68979416 94.80278223 -38.68979416 94.80278223 -41.50390625 93.61328125 C-43.01791016 92.96939453 -43.01791016 92.96939453 -44.5625 92.3125 C-46.375 91.54166667 -48.1875 90.77083333 -50 90 Z M-24 106 C-24.78310547 107.54494141 -24.78310547 107.54494141 -25.58203125 109.12109375 C-29.87166348 117.46567612 -34.45003247 125.44956919 -39.63012695 133.27148438 C-44.04628279 139.97448293 -48.11242954 146.86267585 -52.16967773 153.78710938 C-55.49374727 159.45720585 -58.8645092 165.09196272 -62.3125 170.6875 C-65.58881405 176.00813585 -68.81567615 181.35584378 -71.99609375 186.734375 C-72.34646194 187.32688553 -72.69683014 187.91939606 -73.05781555 188.52986145 C-74.79359593 191.46742178 -76.52595807 194.40692777 -78.25512695 197.34838867 C-81.83758515 203.42451435 -85.50593743 209.42557753 -89.31591797 215.36157227 C-92.08658702 219.70234067 -94.76321068 224.09941027 -97.4375 228.5 C-98.03312744 229.4792041 -98.62875488 230.4584082 -99.24243164 231.46728516 C-103.85725647 239.0738762 -108.4080514 246.71732689 -112.9375 254.375 C-113.93535522 256.06157715 -113.93535522 256.06157715 -114.95336914 257.78222656 C-115.61973389 258.90854492 -116.28609863 260.03486328 -116.97265625 261.1953125 C-135.40497874 292.34589287 -135.40497874 292.34589287 -142.70532227 303.08569336 C-148.02682407 310.93070079 -152.64697031 319.08303382 -156.80078125 327.59765625 C-158.7354909 331.47337753 -160.87079417 335.22826396 -163 339 C-157.39 342.3 -151.78 345.6 -146 349 C-142.05077017 345.05077017 -140.17548016 342.95 -137.6875 338.3125 C-133.69952661 331.07301176 -129.40103189 324.03356157 -125.0625 317 C-124.71136139 316.42970062 -124.36022278 315.85940125 -123.9984436 315.27182007 C-120.03460389 308.83710132 -116.02386393 302.44183792 -111.875 296.125 C-109.40673796 292.33264225 -107.24246495 288.59037348 -105.3125 284.5 C-102.54304699 278.74980055 -99.20639147 273.4772821 -95.75 268.125 C-89.90925435 259.07868732 -84.27545637 249.92827272 -78.75 240.6875 C-78.36085419 240.0369162 -77.97170837 239.3863324 -77.57077026 238.71603394 C-72.91335777 230.92413512 -68.28539225 223.11519752 -63.6965332 215.28271484 C-55.37680205 201.0980802 -47.00659566 186.94133064 -38.03125 173.16015625 C-31.76578445 163.41253773 -26.02231919 153.34119543 -20.2512207 143.29638672 C-16.41760201 136.65144765 -12.42957325 130.10810503 -8.35205078 123.61010742 C-7.69245361 122.5482019 -7.69245361 122.5482019 -7.01953125 121.46484375 C-6.62870361 120.842146 -6.23787598 120.21944824 -5.83520508 119.57788086 C-4.84405837 118.00294198 -4.84405837 118.00294198 -5 116 C-7.04620207 114.54204367 -7.04620207 114.54204367 -9.625 113.125 C-12.64444972 111.382517 -15.59337396 109.64108934 -18.4375 107.625 C-20.91653612 105.73222899 -20.91653612 105.73222899 -24 106 Z M10 126 C2.94006986 137.3357593 -4.0558032 148.70385432 -10.89501953 160.17431641 C-13.40365711 164.37266652 -15.95212376 168.52825511 -18.625 172.625 C-21.47398921 177.03479909 -23.99038995 181.58060526 -26.5 186.1875 C-32.27452165 196.74993596 -38.71160402 206.88089013 -45.13916016 217.05419922 C-53.59313121 230.43725021 -61.75046758 243.94298439 -69.61621094 257.68115234 C-74.15971138 265.59864441 -78.88906879 273.36282708 -83.78320312 281.06640625 C-86.53743144 285.44310935 -89.20634256 289.87284362 -91.89331055 294.29101562 C-94.09147816 297.89866273 -96.30298078 301.49536236 -98.56640625 305.0625 C-103.41974276 312.71333105 -107.96862518 320.45632842 -112.30957031 328.40991211 C-115.30216947 333.85245087 -118.52744531 339.0853291 -121.9375 344.27441406 C-124.86074452 348.73077324 -127.51794069 353.28533458 -130 358 C-128.40207898 359.17520646 -126.79643092 360.33991247 -125.1875 361.5 C-124.29417969 362.1496875 -123.40085937 362.799375 -122.48046875 363.46875 C-120.06037916 365.26264658 -120.06037916 365.26264658 -117 365 C-115.50703881 362.91918534 -114.25179045 360.90968577 -113 358.6875 C-112.41351685 357.67913086 -112.41351685 357.67913086 -111.81518555 356.65039062 C-110.53245631 354.4397457 -109.26563433 352.22046974 -108 350 C-106.27452256 346.99786874 -104.54385717 343.99874349 -102.8125 341 C-102.36084473 340.21625 -101.90918945 339.4325 -101.44384766 338.625 C-93.99310644 325.74222925 -86.29216307 312.98296078 -78.1875 300.5 C-72.55610562 291.82262836 -67.09060028 283.02156709 -62.25 273.875 C-57.86181966 265.71010708 -52.809646 257.92791543 -47.90625 250.06689453 C-45.87534575 246.79944843 -43.85711679 243.52436007 -41.84375 240.24609375 C-41.4927121 239.67461105 -41.14167419 239.10312836 -40.77999878 238.514328 C-39.06739996 235.72554018 -37.35585764 232.93610879 -35.64501953 230.14624023 C-32.00538601 224.22176169 -28.31586953 218.33780739 -24.52563477 212.50830078 C-22.9418312 209.9043645 -21.6118263 207.25555625 -20.3125 204.5 C-16.89147042 197.47835923 -12.68441426 191.02904417 -8.48046875 184.4609375 C2.1124192 167.90285491 12.2834903 151.08623528 22 134 C19.69716746 131.45868642 17.32686207 129.92889705 14.3125 128.3125 C13.50425781 127.87550781 12.69601562 127.43851562 11.86328125 126.98828125 C11.24839844 126.66214844 10.63351562 126.33601563 10 126 Z M-194 340 C-194.07344537 341.59763203 -194.14621091 343.19529531 -194.21875 344.79296875 C-194.26507568 345.8099585 -194.31140137 346.82694824 -194.35913086 347.87475586 C-194.45333094 350.09000877 -194.53741845 352.305714 -194.61157227 354.52172852 C-194.92920221 363.97593138 -194.92920221 363.97593138 -195.55859375 368.171875 C-195.95335388 371.57413759 -196.13973411 373.76353984 -195 377 C-190.79104126 380.94775397 -186.14883932 383.46916767 -181 386 C-180.03964844 386.50144531 -179.07929688 387.00289063 -178.08984375 387.51953125 C-176.46562571 388.35046815 -174.82814857 389.15623897 -173.17578125 389.9296875 C-171.07570538 390.96275893 -169.20252604 392.15283145 -167.25 393.4375 C-164.16954257 395.28433665 -164.16954257 395.28433665 -161.1875 394.625 C-157.59021624 392.79109063 -154.15859698 390.77401777 -150.7265625 388.6484375 C-147.07807652 386.44261933 -143.32021203 384.4672896 -139.54296875 382.4921875 C-136.80352052 380.88470789 -134.43335803 379.03580762 -132 377 C-147.94209709 367.01082177 -163.89825468 357.04298708 -180 347.3125 C-180.83047852 346.80734863 -181.66095703 346.30219727 -182.51660156 345.78173828 C-183.29487305 345.31364746 -184.07314453 344.84555664 -184.875 344.36328125 C-185.55304688 343.95376221 -186.23109375 343.54424316 -186.9296875 343.12231445 C-189.22417882 341.87847287 -191.56216152 340.9266653 -194 340 Z M-196 396 C-197.23839599 402.65637843 -197.09139136 409.2471936 -197 416 C-194.72565347 414.73513885 -192.45561255 413.46345297 -190.1875 412.1875 C-189.22360352 411.65286133 -189.22360352 411.65286133 -188.24023438 411.10742188 C-185.13461565 409.3534714 -182.32540905 407.74035193 -180 405 C-180.58007812 404.68546875 -181.16015625 404.3709375 -181.7578125 404.046875 C-185.42202106 402.0394208 -189.04368906 400.03947745 -192.5 397.6875 C-194.63543609 395.90675452 -194.63543609 395.90675452 -196 396 Z " fill="#646466" transform="translate(316,31)"/>
<path d="M0 0 C0.33 0 0.66 0 1 0 C1 1.65 1 3.3 1 5 C0.360625 5.20625 -0.27875 5.4125 -0.9375 5.625 C-3.34925077 6.89538209 -3.34925077 6.89538209 -3.75 10.125 C-3.8325 11.07375 -3.915 12.0225 -4 13 C-4.99 13.33 -5.98 13.66 -7 14 C-6.87625 14.886875 -6.7525 15.77375 -6.625 16.6875 C-7.04028076 20.35581339 -7.30900395 20.67040465 -10 22.875 C-10.99 23.57625 -11.98 24.2775 -13 25 C-13.33 24.34 -13.66 23.68 -14 23 C-12.84423828 20.66162109 -12.84423828 20.66162109 -11.0703125 17.7734375 C-10.43996094 16.7421875 -9.80960937 15.7109375 -9.16015625 14.6484375 C-8.48855469 13.56820312 -7.81695312 12.48796875 -7.125 11.375 C-6.12919922 9.74304688 -6.12919922 9.74304688 -5.11328125 8.078125 C-1.4973516 2.20131876 -1.4973516 2.20131876 0 0 Z " fill="#A8A8A9" transform="translate(269,217)"/>
<path d="M0 0 C1.24546405 2.49092811 0.7767578 3.41080733 0 6 C-0.66 6 -1.32 6 -2 6 C-2.17015625 6.56847656 -2.3403125 7.13695312 -2.515625 7.72265625 C-4.15067737 12.9322114 -6.13309172 17.35363141 -9 22 C-10.65 21.67 -12.3 21.34 -14 21 C-13 19 -13 19 -11.5925293 17.61206055 C-9.91808408 15.91707944 -8.76756621 14.23306203 -7.51953125 12.20703125 C-7.07802734 11.49482422 -6.63652344 10.78261719 -6.18164062 10.04882812 C-5.72982422 9.31083984 -5.27800781 8.57285156 -4.8125 7.8125 C-4.34908203 7.06291016 -3.88566406 6.31332031 -3.40820312 5.54101562 C-2.26845974 3.69627633 -1.13373645 1.84843711 0 0 Z " fill="#A7A7A8" transform="translate(150,340)"/>
<path d="M0 0 C0.33 0.66 0.66 1.32 1 2 C0.01453001 3.67529898 -0.98940479 5.33973644 -2 7 C-2.48005812 8.28375092 -2.93705875 9.57627767 -3.375 10.875 C-4.9313343 15.20638541 -7.09837172 18.42876519 -10 22 C-10.66 22 -11.32 22 -12 22 C-12 22.99 -12 23.98 -12 25 C-12.66 25 -13.32 25 -14 25 C-12.32280712 20.36732128 -9.9856227 16.20830269 -7.5625 11.9375 C-7.16740234 11.23044922 -6.77230469 10.52339844 -6.36523438 9.79492188 C-4.42676178 6.35985813 -2.48642136 3.07804574 0 0 Z " fill="#B3B3B4" transform="translate(265,88)"/>
<path d="M0 0 C0.99 0.33 1.98 0.66 3 1 C1.52520827 3.50267687 0.04544936 6.00216421 -1.4375 8.5 C-1.85837891 9.21542969 -2.27925781 9.93085938 -2.71289062 10.66796875 C-3.78084102 12.46212541 -4.88734761 14.23321738 -6 16 C-6.33 16 -6.66 16 -7 16 C-7.36777583 9.62521891 -7.36777583 9.62521891 -5.75 6.875 C-5.1725 6.25625 -4.595 5.6375 -4 5 C-3.278125 4.0925 -2.55625 3.185 -1.8125 2.25 C-1.214375 1.5075 -0.61625 0.765 0 0 Z " fill="#939394" transform="translate(256,193)"/>
<path d="M0 0 C0.33 0.66 0.66 1.32 1 2 C-0.27711271 4.59929999 -1.60772972 7.06488466 -3.0625 9.5625 C-3.4742749 10.28179687 -3.8860498 11.00109375 -4.31030273 11.7421875 C-7.33074434 16.97157364 -10.50798161 22.07009168 -14 27 C-14.33 26.34 -14.66 25.68 -15 25 C-14.02783203 23.00048828 -14.02783203 23.00048828 -12.5078125 20.5703125 C-11.96769531 19.69246094 -11.42757813 18.81460938 -10.87109375 17.91015625 C-10.29488281 16.99105469 -9.71867187 16.07195312 -9.125 15.125 C-7.99788563 13.31803887 -6.87529977 11.50824315 -5.7578125 9.6953125 C-5.00201904 8.4889917 -5.00201904 8.4889917 -4.23095703 7.25830078 C-2.91890988 5.08016065 -2.91890988 5.08016065 -2.45263672 2.76904297 C-2.3032666 2.18525879 -2.15389648 1.60147461 -2 1 C-1.34 0.67 -0.68 0.34 0 0 Z " fill="#D5D6D6" transform="translate(290,214)"/>
<path d="M0 0 C0.33 0.66 0.66 1.32 1 2 C2.423125 2.4021875 2.423125 2.4021875 3.875 2.8125 C7.57784756 4.21958207 8.34059686 5.49681559 10 9 C7.0280615 7.87548273 4.66559313 6.77706209 2 5 C0.35 6.65 -1.3 8.3 -3 10 C-2.835 9.401875 -2.67 8.80375 -2.5 8.1875 C-1.8885876 5.88655664 -1.8885876 5.88655664 -2 3 C-1.34 2.01 -0.68 1.02 0 0 Z " fill="#A6A7A9" transform="translate(325,153)"/>
<path d="M0 0 C1.32 0 2.64 0 4 0 C2.1643002 9.9127789 2.1643002 9.9127789 -1 14 C-1.66 14 -2.32 14 -3 14 C-3 14.66 -3 15.32 -3 16 C-3.66 16 -4.32 16 -5 16 C-3.63408831 12.45756548 -2.09068516 9.07372071 -0.375 5.6875 C0.29402344 4.36298828 0.29402344 4.36298828 0.9765625 3.01171875 C1.31429688 2.34785156 1.65203125 1.68398437 2 1 C1.34 0.67 0.68 0.34 0 0 Z " fill="#A7A8AA" transform="translate(353,133)"/>
<path d="M0 0 C1 2 1 2 0.43359375 3.91796875 C-1.98234212 9.42251283 -4.82720316 13.67420061 -9 18 C-9.33 17.34 -9.66 16.68 -10 16 C-9.19555664 14.30419922 -9.19555664 14.30419922 -7.91015625 12.3046875 C-7.45576172 11.58925781 -7.00136719 10.87382812 -6.53320312 10.13671875 C-6.04787109 9.39035156 -5.56253906 8.64398438 -5.0625 7.875 C-4.58103516 7.12089844 -4.09957031 6.36679687 -3.60351562 5.58984375 C-2.40942203 3.72185575 -1.20805232 1.85897934 0 0 Z " fill="#B3B3B3" transform="translate(225,351)"/>
<path d="M0 0 C4.97002661 0.06570949 8.12988521 0.56575681 12.25 3.3125 C11.92 3.9725 11.59 4.6325 11.25 5.3125 C8.1875 5.9375 8.1875 5.9375 5.25 6.3125 C5.58 5.3225 5.91 4.3325 6.25 3.3125 C3.10069107 2.26273036 0.86185544 2.21118405 -2.4375 2.25 C-3.43136719 2.25902344 -4.42523438 2.26804688 -5.44921875 2.27734375 C-6.20847656 2.28894531 -6.96773438 2.30054688 -7.75 2.3125 C-5.0881996 -0.3493004 -3.70750737 0.01383398 0 0 Z " fill="#919193" transform="translate(309.75,30.6875)"/>
<path d="M0 0 C0.9435441 2.53899138 1.16906025 3.60909275 0.07421875 6.140625 C-0.61220703 7.18476563 -0.61220703 7.18476563 -1.3125 8.25 C-1.76238281 8.95640625 -2.21226562 9.6628125 -2.67578125 10.390625 C-3.11277344 10.92171875 -3.54976562 11.4528125 -4 12 C-4.66 12 -5.32 12 -6 12 C-6 12.99 -6 13.98 -6 15 C-6.66 15 -7.32 15 -8 15 C-6.62712658 11.30123909 -4.93644547 8.0485524 -2.875 4.6875 C-2.33617187 3.80449219 -1.79734375 2.92148438 -1.2421875 2.01171875 C-0.83226562 1.34785156 -0.42234375 0.68398437 0 0 Z " fill="#A3A3A4" transform="translate(229,148)"/>
<path d="M0 0 C4.27186525 1.52853935 7.99326863 3.71509481 11.8125 6.125 C12.40998047 6.49753906 13.00746094 6.87007812 13.62304688 7.25390625 C15.08426251 8.1657048 16.54244585 9.08235976 18 10 C15 11 15 11 12 10 C11.566875 9.525625 11.13375 9.05125 10.6875 8.5625 C8.38984098 6.43503794 5.97249204 5.85871992 3 5 C3 4.01 3 3.02 3 2 C2.01 1.67 1.02 1.34 0 1 C0 0.67 0 0.34 0 0 Z " fill="#B8B8B9" transform="translate(318,132)"/>
<path d="M0 0 C0.66 0 1.32 0 2 0 C2 1.32 2 2.64 2 4 C3.32 4.66 4.64 5.32 6 6 C6 6.99 6 7.98 6 9 C4.35 9.33 2.7 9.66 1 10 C1.33 9.01 1.66 8.02 2 7 C0.02 5.68 -1.96 4.36 -4 3 C-3.01 2.67 -2.02 2.34 -1 2 C-0.67 1.34 -0.34 0.68 0 0 Z " fill="#9A9C9D" transform="translate(180,401)"/>
<path d="M0 0 C2 3 2 3 2 5 C1.01 5.495 1.01 5.495 0 6 C-1.30459693 7.75668497 -2.48649614 9.57495334 -3.68359375 11.40625 C-5 13 -5 13 -8 14 C-6.6744419 10.37723685 -5.05653045 7.36494652 -2.875 4.1875 C-2.33617187 3.39730469 -1.79734375 2.60710937 -1.2421875 1.79296875 C-0.83226562 1.20128906 -0.42234375 0.60960937 0 0 Z " fill="#9B9C9C" transform="translate(146,286)"/>
<path d="M0 0 C0.99 0 1.98 0 3 0 C1.91257943 2.84402303 0.73992413 5.49125442 -0.6875 8.1875 C-1.3371875 9.5796875 -1.3371875 9.5796875 -2 11 C-1.67 11.66 -1.34 12.32 -1 13 C-1.99 12.67 -2.98 12.34 -4 12 C-3.53898164 7.29761275 -2.96823597 3.76737643 0 0 Z " fill="#959798" transform="translate(189,378)"/>
<path d="M0 0 C1.1484375 3.6875 1.1484375 3.6875 -0.1875 6.5 C-1.96000112 8.94482913 -3.8003561 10.93783385 -6 13 C-6.5775 13.5775 -7.155 14.155 -7.75 14.75 C-8.36875 15.36875 -8.36875 15.36875 -9 16 C-7.56691865 12.04093183 -5.66858051 8.71281819 -3.375 5.1875 C-2.74335938 4.21167969 -2.11171875 3.23585938 -1.4609375 2.23046875 C-0.73777344 1.12638672 -0.73777344 1.12638672 0 0 Z " fill="#B8B8B9" transform="translate(265,285)"/>
<path d="M0 0 C2.97 0.495 2.97 0.495 6 1 C6 1.66 6 2.32 6 3 C6.99 2.67 7.98 2.34 9 2 C9.33 2.66 9.66 3.32 10 4 C12.02463255 4.65213292 12.02463255 4.65213292 14 5 C13.67 5.99 13.34 6.98 13 8 C8.27626146 6.37621488 4.05818166 3.89006982 0 1 C0 0.67 0 0.34 0 0 Z " fill="#A5A7A8" transform="translate(317,111)"/>
<path d="M0 0 C1 3 1 3 0 6 C-0.66 6 -1.32 6 -2 6 C-2.144375 6.78375 -2.28875 7.5675 -2.4375 8.375 C-3 11 -3 11 -4 13 C-4.99 13 -5.98 13 -7 13 C-5.35821735 8.22390502 -2.73453298 4.20617096 0 0 Z " fill="#909192" transform="translate(249,312)"/>
<path d="M0 0 C0.66 0.99 1.32 1.98 2 3 C-0.31883213 7.50884026 -3.06451569 9.93906776 -7 13 C-5.35821735 8.22390502 -2.73453298 4.20617096 0 0 Z " fill="#A4A5A7" transform="translate(227,287)"/>
<path d="M0 0 C0 3.65100394 -1.0447585 5.10121798 -2.9375 8.1875 C-3.48277344 9.08855469 -4.02804688 9.98960937 -4.58984375 10.91796875 C-5.05519531 11.60503906 -5.52054688 12.29210937 -6 13 C-6.33 13 -6.66 13 -7 13 C-7 11.02 -7 9.04 -7 7 C-5.68 6.67 -4.36 6.34 -3 6 C-3 4.68 -3 3.36 -3 2 C-2.01 1.34 -1.02 0.68 0 0 Z " fill="#A7A8A9" transform="translate(233,309)"/>
<path d="M0 0 C1.32 0.66 2.64 1.32 4 2 C2.3811004 3.03048037 0.75467511 4.04914678 -0.875 5.0625 C-1.77992188 5.63097656 -2.68484375 6.19945312 -3.6171875 6.78515625 C-4.40351563 7.18605469 -5.18984375 7.58695312 -6 8 C-6.66 7.67 -7.32 7.34 -8 7 C-5.42215154 4.35247996 -3.08351902 2.05567935 0 0 Z " fill="#A1A2A3" transform="translate(163,437)"/>
<path d="M0 0 C6.26418531 1.48362284 10.91513505 5.24162156 16 9 C14 10 14 10 11.625 9.3125 C8.77947138 7.88973569 7.20174453 6.27054905 5 4 C3.34338239 2.98343919 1.67888441 1.97934924 0 1 C0 0.67 0 0.34 0 0 Z " fill="#C6C6C9" transform="translate(353,54)"/>
<path d="M0 0 C0.84172676 2.35683494 1.10948624 3.6386954 0.375 6.0625 C-1.37634575 8.53030537 -3.34701621 9.60369274 -6 11 C-4.54955729 6.89041233 -2.48889248 3.56741255 0 0 Z " fill="#A1A1A3" transform="translate(185,282)"/>
<path d="M0 0 C0.33 0.66 0.66 1.32 1 2 C-0.64379791 6.67184669 -2.18479582 9.71103088 -6 13 C-6 9.32965255 -4.9247108 7.9000569 -3 4.8125 C-2.443125 3.91144531 -1.88625 3.01039063 -1.3125 2.08203125 C-0.6628125 1.05142578 -0.6628125 1.05142578 0 0 Z " fill="#A4A5A7" transform="translate(238,269)"/>
<path d="M0 0 C0.33 0.66 0.66 1.32 1 2 C0.06421005 4.35981813 -0.93347808 6.69631264 -2 9 C-2.66 9 -3.32 9 -4 9 C-4 9.99 -4 10.98 -4 12 C-4.99 12.33 -5.98 12.66 -7 13 C-5.35821735 8.22390502 -2.73453298 4.20617096 0 0 Z " fill="#B3B4B4" transform="translate(306,156)"/>
<path d="M0 0 C0.33 0.66 0.66 1.32 1 2 C0.06421005 4.35981813 -0.93347808 6.69631264 -2 9 C-2.66 9 -3.32 9 -4 9 C-4 9.99 -4 10.98 -4 12 C-4.99 12.33 -5.98 12.66 -7 13 C-5.35821735 8.22390502 -2.73453298 4.20617096 0 0 Z " fill="#AEAFAF" transform="translate(115,337)"/>
<path d="M0 0 C-1.44950455 3.7910119 -3.15172566 7.3874638 -5 11 C-5.33 11 -5.66 11 -6 11 C-6.21952523 7.15830842 -5.72664863 4.45329726 -4 1 C-2 0 -2 0 0 0 Z " fill="#828283" transform="translate(170,339)"/>
<path d="M0 0 C0.33 0.66 0.66 1.32 1 2 C-0.43359375 4.6015625 -0.43359375 4.6015625 -2.4375 7.625 C-3.42556641 9.12933594 -3.42556641 9.12933594 -4.43359375 10.6640625 C-4.95050781 11.43492187 -5.46742188 12.20578125 -6 13 C-7 11 -7 11 -6.375 8.1875 C-4.81868604 4.57968127 -2.90663822 2.6006763 0 0 Z " fill="#B8B8B9" transform="translate(286,282)"/>
<path d="M0 0 C1 4 1 4 0 7 C-1.33333333 7.33333333 -2.66666667 7.66666667 -4 8 C-4.33 8.99 -4.66 9.98 -5 11 C-5.33 10.34 -5.66 9.68 -6 9 C-4.02 6.03 -2.04 3.06 0 0 Z " fill="#B4B4B5" transform="translate(311,209)"/>
<path d="M0 0 C4.30764815 1.56641751 8.06171464 3.68336156 12 6 C12 6.33 12 6.66 12 7 C10.35 7 8.7 7 7 7 C7 6.34 7 5.68 7 5 C4.03 4.505 4.03 4.505 1 4 C0.67 2.68 0.34 1.36 0 0 Z " fill="#A3A4A7" transform="translate(336,143)"/>
<path d="M0 0 C3.96 1.98 3.96 1.98 8 4 C5 6 5 6 2.3125 5.625 C1.549375 5.41875 0.78625 5.2125 0 5 C0 3.35 0 1.7 0 0 Z " fill="#7A7A7B" transform="translate(121,408)"/>
<path d="M0 0 C0.6875 1.75 0.6875 1.75 1 4 C-0.3125 6.25 -0.3125 6.25 -2 8 C-2.66 8 -3.32 8 -4 8 C-4 8.99 -4 9.98 -4 11 C-4.66 11 -5.32 11 -6 11 C-4.54955729 6.89041233 -2.48889248 3.56741255 0 0 Z " fill="#AEAFB0" transform="translate(235,335)"/>
<path d="M0 0 C0.33 0.66 0.66 1.32 1 2 C0.0390625 3.9453125 0.0390625 3.9453125 -1.375 6.125 C-1.83648437 6.84945312 -2.29796875 7.57390625 -2.7734375 8.3203125 C-3.17820313 8.87460938 -3.58296875 9.42890625 -4 10 C-4.33 10 -4.66 10 -5 10 C-5.125 7.125 -5.125 7.125 -5 4 C-4.34 3.34 -3.68 2.68 -3 2 C-2.34 2.33 -1.68 2.66 -1 3 C-0.67 2.01 -0.34 1.02 0 0 Z " fill="#A6A6A6" transform="translate(230,239)"/>
<path d="M0 0 C0.33 0.66 0.66 1.32 1 2 C0.06421005 4.35981813 -0.93347808 6.69631264 -2 9 C-2.66 9 -3.32 9 -4 9 C-4.33 9.99 -4.66 10.98 -5 12 C-5.33 11.34 -5.66 10.68 -6 10 C-4.78515625 7.6171875 -4.78515625 7.6171875 -3.0625 4.875 C-2.21365234 3.50988281 -2.21365234 3.50988281 -1.34765625 2.1171875 C-0.90292969 1.41851562 -0.45820313 0.71984375 0 0 Z " fill="#C5C7C8" transform="translate(299,228)"/>
<path d="M0 0 C1.36682561 2.73365122 0.84683011 4.10666379 0 7 C-1.4375 8.8125 -1.4375 8.8125 -3 10 C-3.66 10 -4.32 10 -5 10 C-3.66511872 6.40608886 -2.03977277 3.24509304 0 0 Z " fill="#ACADAF" transform="translate(186,219)"/>
<path d="M0 0 C0.99 0 1.98 0 3 0 C1.66511872 3.59391114 0.03977277 6.75490696 -2 10 C-3.33332095 7.3333581 -2.67102033 5.83319697 -2 3 C-1.34 3 -0.68 3 0 3 C0 2.01 0 1.02 0 0 Z " fill="#ACADAF" transform="translate(196,292)"/>
<path d="M0 0 C0 3.44360632 -0.79591532 4.74795392 -2.5 7.6875 C-2.9640625 8.49574219 -3.428125 9.30398438 -3.90625 10.13671875 C-4.2671875 10.75160156 -4.628125 11.36648438 -5 12 C-6.60031344 8.79937313 -5.03173691 6.27728194 -4 3 C-3.34 3 -2.68 3 -2 3 C-2 2.34 -2 1.68 -2 1 C-1.34 0.67 -0.68 0.34 0 0 Z " fill="#B3B4B5" transform="translate(169,279)"/>
<path d="M0 0 C0.99 0.33 1.98 0.66 3 1 C0.525 5.455 0.525 5.455 -2 10 C-2.66 8.68 -3.32 7.36 -4 6 C-3.34 5.67 -2.68 5.34 -2 5 C-2 4.34 -2 3.68 -2 3 C-1.34 3 -0.68 3 0 3 C0 2.01 0 1.02 0 0 Z " fill="#9B9B9E" transform="translate(262,183)"/>
<path d="M0 0 C0.99 0.33 1.98 0.66 3 1 C0.525 5.455 0.525 5.455 -2 10 C-2.66 8.68 -3.32 7.36 -4 6 C-3.01 6 -2.02 6 -1 6 C-1.33 5.01 -1.66 4.02 -2 3 C-1.34 2.01 -0.68 1.02 0 0 Z " fill="#8E8F90" transform="translate(249,143)"/>
<path d="M0 0 C3.30507324 -0.2253459 5.39213514 -0.34500438 8.3125 1.3125 C10 3 10 3 11 6 C7.2089881 4.55049545 3.6125362 2.84827434 0 1 C0 0.67 0 0.34 0 0 Z " fill="#868689" transform="translate(367,82)"/>
<path d="M0 0 C0 0.66 0 1.32 0 2 C-3.27037599 5.27037599 -6.5130254 5.56856013 -11 6 C-9.73083275 3.46166551 -8.58375191 3.10599099 -6.0625 1.875 C-5.35222656 1.52179688 -4.64195312 1.16859375 -3.91015625 0.8046875 C-2 0 -2 0 0 0 Z " fill="#9C9D9D" transform="translate(178,413)"/>
<path d="M0 0 C0.33 0.66 0.66 1.32 1 2 C0.00390625 3.9453125 0.00390625 3.9453125 -1.4375 6.125 C-1.91058594 6.84945313 -2.38367188 7.57390625 -2.87109375 8.3203125 C-3.24363281 8.87460937 -3.61617188 9.42890625 -4 10 C-4.66 8.68 -5.32 7.36 -6 6 C-5.34 6 -4.68 6 -4 6 C-4 5.01 -4 4.02 -4 3 C-3.01 3 -2.02 3 -1 3 C-0.67 2.01 -0.34 1.02 0 0 Z " fill="#A7A9A9" transform="translate(272,305)"/>
<path d="M0 0 C0.33 0.66 0.66 1.32 1 2 C0.0625 4.625 0.0625 4.625 -1 7 C-1.66 7 -2.32 7 -3 7 C-3 7.99 -3 8.98 -3 10 C-3.99 10.33 -4.98 10.66 -6 11 C-4.54955729 6.89041233 -2.48889248 3.56741255 0 0 Z " fill="#B2B2B2" transform="translate(276,267)"/>
<path d="M0 0 C0.99 0.33 1.98 0.66 3 1 C1.8141763 4.37503669 0.72426311 6.64722731 -2 9 C-2.33 7.68 -2.66 6.36 -3 5 C-2.01 5 -1.02 5 0 5 C-0.33 4.01 -0.66 3.02 -1 2 C-0.67 1.34 -0.34 0.68 0 0 Z " fill="#8F9091" transform="translate(173,268)"/>
<path d="M0 0 C0.66 1.32 1.32 2.64 2 4 C0.625 5.5 0.625 5.5 -1 7 C-1.66 7 -2.32 7 -3 7 C-3 7.99 -3 8.98 -3 10 C-3.66 10 -4.32 10 -5 10 C-3.66511872 6.40608886 -2.03977277 3.24509304 0 0 Z " fill="#A1A1A2" transform="translate(285,252)"/>
<path d="M0 0 C0.99 0.66 1.98 1.32 3 2 C2.21625 2.763125 1.4325 3.52625 0.625 4.3125 C-2.07257717 6.90891805 -2.07257717 6.90891805 -4 10 C-4.33 9.01 -4.66 8.02 -5 7 C-4.00390625 5.17578125 -4.00390625 5.17578125 -2.5625 3.3125 C-2.08941406 2.68988281 -1.61632812 2.06726563 -1.12890625 1.42578125 C-0.75636719 0.95527344 -0.38382812 0.48476562 0 0 Z " fill="#757578" transform="translate(295,237)"/>
<path d="M0 0 C0.8125 1.6875 0.8125 1.6875 1 4 C-1.4375 6.75 -1.4375 6.75 -4 9 C-4 5.00095031 -2.27413033 3.19799578 0 0 Z " fill="#A3A3A5" transform="translate(275,208)"/>
<path d="M0 0 C0.99 0 1.98 0 3 0 C2.38461538 5.53846154 2.38461538 5.53846154 0.4375 7.875 C-0.036875 8.24625 -0.51125 8.6175 -1 9 C-1.125 2.25 -1.125 2.25 0 0 Z " fill="#858687" transform="translate(250,200)"/>
<path d="M0 0 C0.33 0 0.66 0 1 0 C1 1.65 1 3.3 1 5 C0.360625 5.268125 -0.27875 5.53625 -0.9375 5.8125 C-3.33131686 6.88667752 -3.33131686 6.88667752 -4 10 C-4.33 9.34 -4.66 8.68 -5 8 C-4.0390625 6.0546875 -4.0390625 6.0546875 -2.625 3.875 C-2.16351563 3.15054688 -1.70203125 2.42609375 -1.2265625 1.6796875 C-0.82179688 1.12539062 -0.41703125 0.57109375 0 0 Z " fill="#BCBCBD" transform="translate(269,217)"/>
<path d="M0 0 C1.65 0.33 3.3 0.66 5 1 C4.1875 2.9375 4.1875 2.9375 3 5 C2.01 5.33 1.02 5.66 0 6 C-0.66 4.68 -1.32 3.36 -2 2 C-1.34 2 -0.68 2 0 2 C0 1.34 0 0.68 0 0 Z " fill="#565759" transform="translate(267,113)"/>
<path d="M0 0 C0.33 0.66 0.66 1.32 1 2 C0.0625 4.625 0.0625 4.625 -1 7 C-1.66 7 -2.32 7 -3 7 C-3 7.66 -3 8.32 -3 9 C-3.66 9 -4.32 9 -5 9 C-3.7508258 5.54074837 -2.32472205 2.85306797 0 0 Z " fill="#AEAEAE" transform="translate(192,210)"/>
<path d="M0 0 C1 2 1 2 0.9375 3.8125 C-0.52058124 7.21468955 -3.08270714 8.76547781 -6 11 C-4.54955729 6.89041233 -2.48889248 3.56741255 0 0 Z " fill="#C8C9CB" transform="translate(229,209)"/>
<path d="M0 0 C0.99 0.33 1.98 0.66 3 1 C1.8141763 4.37503669 0.72426311 6.64722731 -2 9 C-2 6.69 -2 4.38 -2 2 C-1.34 2 -0.68 2 0 2 C0 1.34 0 0.68 0 0 Z " fill="#A7A8AA" transform="translate(327,210)"/>
<path d="M0 0 C1.15392455 2.3078491 1.53437166 4.47230331 2 7 C0.35 7.66 -1.3 8.32 -3 9 C-2.69181644 7.68647977 -2.37832335 6.37420428 -2.0625 5.0625 C-1.88847656 4.33160156 -1.71445312 3.60070312 -1.53515625 2.84765625 C-1 1 -1 1 0 0 Z " fill="#8B8B8B" transform="translate(309,151)"/>
<path d="M0 0 C0.99 0.33 1.98 0.66 3 1 C1.68 3.31 0.36 5.62 -1 8 C-1.33 8 -1.66 8 -2 8 C-1.125 1.125 -1.125 1.125 0 0 Z " fill="#9E9FA0" transform="translate(371,138)"/>
<path d="M0 0 C0.33 0.66 0.66 1.32 1 2 C-0.25 5.5625 -0.25 5.5625 -2 9 C-2.99 9.33 -3.98 9.66 -5 10 C-3.66511872 6.40608886 -2.03977277 3.24509304 0 0 Z " fill="#C1C1C1" transform="translate(225,351)"/>
<path d="M0 0 C1.98 0.495 1.98 0.495 4 1 C2.92598892 3.91517292 2.22189824 5.77810176 0 8 C-0.98120464 4.94736336 -0.98120464 3.05263664 0 0 Z " fill="#88888A" transform="translate(219,251)"/>
<path d="M0 0 C0.33 0.66 0.66 1.32 1 2 C-0.25 5.5625 -0.25 5.5625 -2 9 C-2.99 9.33 -3.98 9.66 -5 10 C-3.66511872 6.40608886 -2.03977277 3.24509304 0 0 Z " fill="#B9BBBC" transform="translate(174,239)"/>
<path d="M0 0 C0.66 0.99 1.32 1.98 2 3 C1.01 3.33 0.02 3.66 -1 4 C-1.34342449 5.33076989 -1.67619874 6.66431979 -2 8 C-2.99 8.66 -3.98 9.32 -5 10 C-3.66511872 6.40608886 -2.03977277 3.24509304 0 0 Z " fill="#98989A" transform="translate(290,183)"/>
<path d="M0 0 C0.6875 1.6875 0.6875 1.6875 1 4 C-0.3125 6.75 -0.3125 6.75 -2 9 C-2.66 9 -3.32 9 -4 9 C-2.94124926 5.59687262 -1.99097846 2.98646769 0 0 Z " fill="#A7A7A9" transform="translate(253,169)"/>
<path d="M0 0 C0.66 0 1.32 0 2 0 C0.6302836 3.99500618 -1.25722422 6.80009492 -4 10 C-3.67 8.02 -3.34 6.04 -3 4 C-2.01 3.67 -1.02 3.34 0 3 C0 2.01 0 1.02 0 0 Z " fill="#8E8F90" transform="translate(257,131)"/>
<path d="M0 0 C0.33 1.32 0.66 2.64 1 4 C0.01 4.495 0.01 4.495 -1 5 C-1.72159424 6.64363134 -2.39351421 8.31050386 -3 10 C-3.66 10 -4.32 10 -5 10 C-3.84414715 6.08788267 -2.64465038 3.1254959 0 0 Z " fill="#AAAAAB" transform="translate(243,125)"/>
<path d="M0 0 C3.93673644 1.31224548 6.22719294 2.91910327 9 6 C5.37546731 6 3.92079805 5.07530387 1 3 C0.67 2.01 0.34 1.02 0 0 Z " fill="#9B9B9C" transform="translate(371,65)"/>
<path d="M0 0 C0.6875 1.6875 0.6875 1.6875 1 4 C-0.3125 6.75 -0.3125 6.75 -2 9 C-2.66 9 -3.32 9 -4 9 C-2.94124926 5.59687262 -1.99097846 2.98646769 0 0 Z " fill="#A9A9A9" transform="translate(294,40)"/>
<path d="M0 0 C0.66 0.66 1.32 1.32 2 2 C0.02 4.64 -1.96 7.28 -4 10 C-4 5.75354935 -2.18249194 3.61475228 0 0 Z " fill="#696A6A" transform="translate(139,299)"/>
<path d="M0 0 C0.66 0.99 1.32 1.98 2 3 C-0.33333333 5.33333333 -2.66666667 7.66666667 -5 10 C-3.66511872 6.40608886 -2.03977277 3.24509304 0 0 Z " fill="#9FA0A1" transform="translate(250,249)"/>
<path d="M0 0 C0 3.58534593 -1.02362045 5.07495826 -3 8 C-3.33 8 -3.66 8 -4 8 C-4.125 3.25 -4.125 3.25 -3 1 C-2.01 0.67 -1.02 0.34 0 0 Z " fill="#9D9D9E" transform="translate(342,189)"/>
<path d="M0 0 C0.99 0 1.98 0 3 0 C1.8141763 3.37503669 0.72426311 5.64722731 -2 8 C-1.125 1.125 -1.125 1.125 0 0 Z " fill="#A4A5A8" transform="translate(316,168)"/>
<path d="M0 0 C-0.66 1.65 -1.32 3.3 -2 5 C-3.65 4.67 -5.3 4.34 -7 4 C-5.53303752 1.06607504 -3.25996861 0 0 0 Z " fill="#8D8E8F" transform="translate(143,357)"/>
<path d="M0 0 C0 2.83967231 -0.40267181 5.23735711 -1 8 C-1.99 8.33 -2.98 8.66 -4 9 C-2.25 2.25 -2.25 2.25 0 0 Z " fill="#AFB2B3" transform="translate(171,305)"/>
<path d="M0 0 C0.99 0.33 1.98 0.66 3 1 C1.68 3.31 0.36 5.62 -1 8 C-1.33 8 -1.66 8 -2 8 C-2.20086443 4.28400809 -2.1519437 3.22791555 0 0 Z " fill="#909192" transform="translate(263,256)"/>
<path d="M0 0 C0.33 0.66 0.66 1.32 1 2 C0.67 2.99 0.34 3.98 0 5 C0.66 5.33 1.32 5.66 2 6 C0.35 6.66 -1.3 7.32 -3 8 C-1.125 1.125 -1.125 1.125 0 0 Z " fill="#98999A" transform="translate(210,240)"/>
<path d="M0 0 C1 2 1 2 0.25 4.5625 C-1 7 -1 7 -4 8 C-2.87548273 5.0280615 -1.77706209 2.66559313 0 0 Z " fill="#9F9FA1" transform="translate(322,191)"/>
<path d="M0 0 C0.75 1.75 0.75 1.75 1 4 C-0.9375 6.25 -0.9375 6.25 -3 8 C-3 4.42424104 -1.91159393 2.94704065 0 0 Z " fill="#A0A0A0" transform="translate(243,186)"/>
<path d="M0 0 C0.66 0.99 1.32 1.98 2 3 C0.35 4.65 -1.3 6.3 -3 8 C-3 4.42424104 -1.91159393 2.94704065 0 0 Z " fill="#A9A9AC" transform="translate(220,163)"/>
<path d="M0 0 C0.66 0.99 1.32 1.98 2 3 C0.35 4.65 -1.3 6.3 -3 8 C-3 4.42424104 -1.91159393 2.94704065 0 0 Z " fill="#9D9FA0" transform="translate(272,77)"/>
<path d="M0 0 C1 2 1 2 0.25 4.5625 C-1 7 -1 7 -4 8 C-2.87548273 5.0280615 -1.77706209 2.66559313 0 0 Z " fill="#9D9D9E" transform="translate(283,59)"/>
</svg>
